<?xml version="1.0" encoding="utf-8"?>
<!-- Generator: Adobe Illustrator 18.1.1, SVG Export Plug-In . SVG Version: 6.00 Build 0)  -->
<svg version="1.1" id="Layer_1" xmlns="http://www.w3.org/2000/svg" xmlns:xlink="http://www.w3.org/1999/xlink" x="0px" y="0px"
	 viewBox="-67 69 120 120" enable-background="new -67 69 120 120" xml:space="preserve">
<g id="icomoon-ignore">
	<line fill="none" stroke="#449FDB" x1="-67" y1="69" x2="-67" y2="69"/>
</g>
<path fill="#2EA2CC" stroke="#2EA2CC" stroke-width="5" stroke-miterlimit="10" d="M18.7,150.2c0-13.5-8.1-17.5-20.4-23.6l-6.7-3.3
	c-12.2-6-15.3-7.9-15.3-15.5c0-9.8,8.6-13.3,16.7-13.3c3.9,0,16.4,1,16.4,13.3c0,2.5,2,4.5,4.5,4.5c2.5,0,4.5-2,4.5-4.5
	c0-11.3-7.3-19.4-18.8-21.6v-6.7c0-2.5-2-4.5-4.5-4.5c-2.5,0-4.5,2-4.5,4.5v6.1c-14,0.9-23.4,9.5-23.4,22.1
	c0,13.5,8.1,17.5,20.4,23.6l6.7,3.3c12.2,6,15.3,7.9,15.3,15.5c0,12.2-12.8,13.2-16.7,13.2c-3.9,0-16.7-1-16.7-13.2
	c0-2.5-2-4.5-4.5-4.5s-4.5,2-4.5,4.5c0,12.6,9.3,21.1,23.4,22v6.3c0,2.5,2,4.5,4.5,4.5c2.5,0,4.5-2,4.5-4.5v-6.8
	C11.3,169.5,18.7,161.5,18.7,150.2z"/>
</svg>
